<svg xmlns="http://www.w3.org/2000/svg" xml:space="preserve" width="7.85961in" height="3.30022in" shape-rendering="geometricPrecision" text-rendering="geometricPrecision" image-rendering="optimizeQuality" fill-rule="evenodd" clip-rule="evenodd"
viewBox="0 0 13.4047 5.62859"
 xmlns:xlink="http://www.w3.org/1999/xlink">
 <g id="Layer_x0020_1">
  <metadata id="CorelCorpID_0Corel-Layer"/>
  <path fill="#1860A2" d="M0.471515 4.5958c-0.193543,-0.575813 -0.323974,-1.17208 -0.441856,-1.76801 -0.112443,-0.568488 0.0987722,-1.01313 0.550452,-1.28887 0.406275,-0.248012 0.886163,-0.415495 1.55127,-0.242264 0.764924,0.199237 1.37277,0.0941391 1.87636,-0.347751 0.62479,-0.548243 1.22054,-0.722931 1.67676,-0.467526 0.262153,0.146755 0.200365,0.420544 -0.0741832,0.527535 -0.21928,0.0854437 -0.449592,0.125268 -0.530416,0.302226 -0.164871,0.360985 0.140094,0.579218 0.416274,0.74429 0.0123415,0.194859 0.024683,0.389717 0.0370245,0.584576 -0.210148,0.0645007 -0.454272,0.105957 -0.570334,0.287964 -0.159728,0.250483 -0.0249314,0.446395 0.230936,0.584589 0.171411,0.0925746 0.344219,0.0494264 0.530382,0.0855847 0.168907,0.0328077 0.284982,0.198014 0.162501,0.383546 -0.184229,0.27908 -0.55346,0.408041 -1.26041,0.315003 -0.500791,-0.0659041 -0.843123,0.0935482 -1.07221,0.36492 -0.502637,0.530597 -1.06166,0.899727 -1.71102,0.96085 -0.615282,0.0579137 -1.12324,-0.288017 -1.37153,-1.02667z"/>
  <path fill="#E3D9BA" d="M2.28092 3.26736c-0.127383,-0.279611 -0.351538,-0.598992 -0.00419664,-1.0103 0.252228,-0.298687 0.632538,-0.25296 0.941922,-0.205125 0.549633,0.0849804 1.02195,0.00143693 1.47202,-0.289159 0.116767,-0.0753986 0.26596,-0.0357218 0.260763,0.0983425 -0.0156048,0.402401 -0.159627,0.791333 -0.192461,1.19269 -0.039106,0.4779 0.281571,0.698886 0.870861,0.708105 0.156263,0.00245084 0.103499,0.201452 -0.0156182,0.261038 -0.279127,0.139644 -0.622419,0.131835 -0.972171,0.0653737 -0.472817,-0.0898485 -0.830882,0.0593305 -1.13146,0.391785 -0.262307,0.290126 -0.573953,0.549888 -0.97616,0.698161 -0.214982,0.0792528 -0.411043,-0.0187943 -0.341976,-0.181 0.156981,-0.368674 0.342654,-0.686188 0.243755,-1.08439 -0.0533477,-0.214788 -0.0635271,-0.444126 -0.155276,-0.645518z"/>
  <path fill="#C9B593" d="M10.6228 0.529187c0.193522,-0.0491108 0.366901,-0.09706 0.431791,-0.331985l1.9289 -0.0288259c0.636493,-0.0095012 0.464901,0.423572 0.0560269,0.750011 -0.214425,-0.623836 -0.889608,0.286043 -1.25115,0.397473 -0.207563,-0.273138 -0.540689,-0.401837 -0.970385,-0.272245l-6.05333 1.82576c-0.0537036,-0.0040825 -0.232743,-0.727785 -0.178146,-0.734702 2.0121,-0.535163 4.0182,-1.0934 6.0363,-1.60548z"/>
  <path fill="#969594" d="M11.3223 0.0206475c0.0578398,-0.00649305 0.108388,0.0207079 0.11288,0.0607473 0.00450552,0.0400393 -0.0387501,0.0777823 -0.09659,0.0842753 -0.0578398,0.00649976 -0.108381,-0.0207079 -0.11288,-0.0607473 -0.00449209,-0.0400393 0.0387501,-0.0777756 0.09659,-0.0842753zm1.65744 -0.019694c0.0578398,-0.00649976 0.108394,0.0207012 0.112886,0.0607406 0.0044988,0.0400393 -0.0387569,0.0777756 -0.09659,0.0842753 -0.0578331,0.00649305 -0.108388,-0.0207079 -0.112886,-0.0607473 -0.00449209,-0.0400326 0.0387569,-0.0777756 0.09659,-0.0842686zm-1.32594 0.0175386c0.0578398,-0.00648633 0.108381,0.0207146 0.11288,0.060754 0.00450552,0.0400326 -0.0387501,0.0777756 -0.09659,0.0842686 -0.0578398,0.00649976 -0.108381,-0.0207012 -0.11288,-0.0607473 -0.00449209,-0.0400393 0.0387501,-0.0777756 0.09659,-0.0842753zm0.994497 -0.00645276c0.0578398,-0.00649305 0.108381,0.0207079 0.11288,0.0607473 0.00450552,0.0400393 -0.0387501,0.0777823 -0.09659,0.0842753 -0.0578398,0.00649976 -0.108381,-0.0207012 -0.11288,-0.0607473 -0.0044988,-0.0400393 0.0387501,-0.0777756 0.09659,-0.0842753zm-0.662996 0.00430408c0.0578398,-0.00649305 0.108381,0.0207079 0.11288,0.0607473 0.00450552,0.0400393 -0.0387501,0.0777823 -0.09659,0.0842753 -0.0578398,0.00649976 -0.108381,-0.0207079 -0.11288,-0.0607473 -0.00449209,-0.0400393 0.0387501,-0.0777756 0.09659,-0.0842753zm0.331495 -0.00214868c0.0578398,-0.00649305 0.108381,0.0207079 0.11288,0.0607473 0.00450552,0.0400326 -0.0387501,0.0777756 -0.09659,0.0842686 -0.0578398,0.00649976 -0.108381,-0.0207012 -0.11288,-0.0607473 -0.0044988,-0.0400393 0.0387501,-0.0777756 0.09659,-0.0842686z"/>
  <path fill="#969594" fill-rule="nonzero" d="M10.7439 0.495802l0.158579 0.525359c-0.0114216,0.00262542 -0.022917,0.00544557 -0.0344729,0.00844701l-0.158042 -0.523587c0.0114484,-0.00329688 0.0227626,-0.00668106 0.0339357,-0.0102197zm-0.490007 0.127511l0.163347 0.541172 -0.033929 0.0102331 -0.16377 -0.542582 0.0343521 -0.00882303zm-0.462215 0.119353l0.168893 0.559557 -0.033929 0.0102331 -0.169296 -0.560873 0.0343319 -0.00891703zm-0.395888 0.103311l0.173345 0.574302 -0.0339223 0.0102398 -0.173721 -0.575545 0.0342983 -0.00899761zm-0.413756 0.108925l0.177736 0.588853 -0.0339357 0.0102331 -0.178085 -0.590021 0.0342849 -0.00906475zm-0.700094 0.186103l0.184666 0.611817 -0.033929 0.0102264 -0.184988 -0.612891 0.0342513 -0.00915204zm-0.347388 0.0930111l0.187922 0.622594 -0.033929 0.0102398 -0.188238 -0.623648 0.0342446 -0.00918562zm-0.302857 0.0813679l0.190682 0.631746 -0.0339223 0.0102264 -0.190998 -0.63276 0.0342379 -0.00921247zm-0.303387 0.0816902l0.193395 0.640737 -0.0339223 0.0102398 -0.193704 -0.641751 0.0342312 -0.0092259zm-0.276441 0.0745526l0.195839 0.648828 -0.033929 0.0102331 -0.196141 -0.649822 0.0342312 -0.00923933zm-0.266551 0.0719607l0.198169 0.656557 -0.0339223 0.0102331 -0.198478 -0.65755 0.0342312 -0.00923933zm-0.241868 0.0652998l0.200291 0.663573 -0.033929 0.0102264 -0.200586 -0.664554 0.0342245 -0.00924605zm-0.245151 0.0662063l0.202433 0.670664 -0.033929 0.0102264 -0.202735 -0.671651 0.0342312 -0.00923933zm-0.208966 0.0564029l0.204259 0.676734 -0.033929 0.0102264 -0.204568 -0.677728 0.0342379 -0.00923262zm-0.217205 0.058565l0.206179 0.6831 -0.033929 0.0102331 -0.206488 -0.684107 0.0342379 -0.0092259zm-0.195839 0.0527569l0.207932 0.688881 -0.033929 0.0102331 -0.208234 -0.689895 0.0342312 -0.00921919zm-0.189265 0.0509103l0.209638 0.694541 -0.033929 0.0102264 -0.209946 -0.695562 0.0342379 -0.00920576zm-0.174473 0.0468816l0.211229 0.699799 -0.033929 0.0102398 -0.211538 -0.700853 0.0342379 -0.00918562zm-0.171203 0.0459079l0.212814 0.70505 -0.033929 0.0102398 -0.213136 -0.706124 0.0342513 -0.00916547zm-0.161346 0.0431885l0.214324 0.710072 -0.033929 0.0102331 -0.214653 -0.711147 0.034258 -0.00915876zm-0.133379 0.0356345l0.215593 0.714289 -0.033929 0.0102264 -0.215922 -0.71537 0.034258 -0.00914533zm-0.156458 0.0417314l0.217111 0.719285 -0.033929 0.0102331 -0.21744 -0.720393 0.034258 -0.00912518zm3.9294 -1.05606l0.181396 0.600973 -0.0339223 0.0102264 -0.181738 -0.602088 0.0342648 -0.00911175z"/>
  <path fill="#4D4948" d="M4.99013 2.37313c0.0187271,-0.00535156 0.0382533,0.00549257 0.0436115,0.0242197 0.00535156,0.0187271 -0.00549257,0.0382533 -0.0242197,0.0436115 -0.0187271,0.00535156 -0.0382533,-0.00549257 -0.0436115,-0.0242197 -0.00535156,-0.0187271 0.00549257,-0.0382533 0.0242197,-0.0436115z"/>
  <path fill="#4D4948" d="M5.30665 2.28263c0.0187338,-0.00535828 0.03826,0.00548585 0.0436115,0.024213 0.00535828,0.0187338 -0.00548585,0.03826 -0.024213,0.0436115 -0.0187271,0.00535828 -0.0382533,-0.00548585 -0.0436115,-0.024213 -0.00535828,-0.0187271 0.00548585,-0.0382533 0.024213,-0.0436115z"/>
  <path fill="#4D4948" d="M5.66783 2.17851c0.0187271,-0.00535156 0.0382533,0.00549257 0.0436115,0.0242197 0.00535828,0.0187271 -0.00548585,0.0382533 -0.024213,0.0436115 -0.0187271,0.00535156 -0.0382533,-0.00549257 -0.0436115,-0.0242197 -0.00535828,-0.0187271 0.00548585,-0.0382533 0.024213,-0.0436115z"/>
  <path fill="#4D4948" d="M6.05548 2.06778c0.0187271,-0.00535156 0.0382533,0.00549257 0.0436115,0.0242197 0.00535156,0.0187271 -0.00548585,0.0382533 -0.0242197,0.0436115 -0.0187271,0.00535156 -0.0382533,-0.00549257 -0.0436048,-0.0242197 -0.00535828,-0.0187271 0.00548585,-0.0382533 0.024213,-0.0436115z"/>
  <path fill="#4D4948" d="M7.54377 1.64124c0.0187271,-0.00535156 0.0382533,0.00548585 0.0436115,0.0242197 0.00535828,0.0187271 -0.00548585,0.0382533 -0.024213,0.0436048 -0.0187338,0.00535828 -0.03826,-0.00548585 -0.0436115,-0.024213 -0.00535828,-0.0187271 0.00548585,-0.0382533 0.024213,-0.0436115z"/>
  <path fill="#4D4948" d="M8.86748 1.2644c0.0187271,-0.00535828 0.0382533,0.00548585 0.0436115,0.024213 0.00535156,0.0187271 -0.00548585,0.0382533 -0.0242197,0.0436115 -0.0187271,0.00535828 -0.0382533,-0.00548585 -0.0436048,-0.024213 -0.00535828,-0.0187271 0.00548585,-0.03826 0.024213,-0.0436115z"/>
  <path fill="#4D4948" d="M8.17047 1.46222c0.0187271,-0.00535156 0.0382533,0.00548585 0.0436115,0.024213 0.00535828,0.0187338 -0.00548585,0.03826 -0.024213,0.0436115 -0.0187338,0.00535828 -0.03826,-0.00548585 -0.0436115,-0.024213 -0.00535828,-0.0187271 0.00548585,-0.0382533 0.024213,-0.0436115z"/>
  <path fill="#4D4948" d="M9.65189 1.03944c0.0187271,-0.00535156 0.0382533,0.00549257 0.0436048,0.0242197 0.00535828,0.0187271 -0.00548585,0.0382533 -0.024213,0.0436115 -0.0187271,0.00535156 -0.0382533,-0.00549257 -0.0436115,-0.0242197 -0.00535156,-0.0187271 0.00548585,-0.0382533 0.0242197,-0.0436115z"/>
  <path fill="#4D4948" d="M6.67664 1.6705c0.0187271,-0.00535828 0.0382533,0.00548585 0.0436115,0.024213 0.00535156,0.0187271 -0.00548585,0.0382533 -0.0242197,0.0436115 -0.0187271,0.00535156 -0.0382533,-0.00548585 -0.0436048,-0.0242197 -0.00535828,-0.0187271 0.00548585,-0.0382533 0.024213,-0.0436048z"/>
  <path fill="#4D4948" d="M6.81078 2.09682c0.0187271,-0.00535828 0.0382533,0.00548585 0.0436115,0.024213 0.00535156,0.0187338 -0.00549257,0.03826 -0.0242197,0.0436115 -0.0187271,0.00535828 -0.0382533,-0.00548585 -0.0436048,-0.024213 -0.00535828,-0.0187271 0.00548585,-0.0382533 0.024213,-0.0436115z"/>
  <path fill="#969594" d="M11.2665 0.327305c0.0456729,-0.0115223 0.0920442,0.0161688 0.10356,0.0618418 0.0115223,0.0456729 -0.0161688,0.0920442 -0.0618418,0.10356 -0.0456729,0.0115223 -0.0920442,-0.0161688 -0.10356,-0.0618418 -0.0115223,-0.0456729 0.0161688,-0.0920442 0.0618418,-0.10356z"/>
  <path fill="#969594" d="M11.5994 0.325378c0.0456729,-0.0115156 0.0920442,0.0161755 0.10356,0.0618485 0.0115223,0.0456729 -0.0161688,0.0920375 -0.0618418,0.10356 -0.0456729,0.0115156 -0.0920442,-0.0161688 -0.10356,-0.0618418 -0.0115223,-0.0456729 0.0161688,-0.0920442 0.0618418,-0.103566z"/>
  <path fill="#969594" d="M12.9308 0.317669c0.0456729,-0.0115223 0.0920442,0.0161688 0.10356,0.0618418 0.0115223,0.0456729 -0.0161688,0.0920442 -0.0618418,0.10356 -0.0456729,0.0115223 -0.0920442,-0.0161688 -0.10356,-0.0618418 -0.0115223,-0.0456729 0.0161688,-0.0920442 0.0618418,-0.10356z"/>
  <path fill="#969594" d="M12.5979 0.319596c0.0456729,-0.0115156 0.0920375,0.0161688 0.10356,0.0618418 0.0115156,0.0456729 -0.0161688,0.0920442 -0.0618418,0.103566 -0.0456729,0.0115156 -0.0920442,-0.0161755 -0.103566,-0.0618485 -0.0115156,-0.0456729 0.0161755,-0.0920375 0.0618485,-0.10356z"/>
  <path fill="#969594" d="M12.2651 0.321523c0.0456729,-0.0115156 0.0920375,0.0161755 0.10356,0.0618485 0.0115156,0.0456729 -0.0161755,0.0920375 -0.0618485,0.10356 -0.0456729,0.0115156 -0.0920375,-0.0161755 -0.10356,-0.0618485 -0.0115156,-0.0456729 0.0161755,-0.0920375 0.0618485,-0.10356z"/>
  <path fill="#969594" d="M11.9322 0.323451c0.0456729,-0.0115156 0.0920442,0.0161755 0.103566,0.0618485 0.0115156,0.0456729 -0.0161755,0.0920375 -0.0618485,0.10356 -0.0456729,0.0115156 -0.0920375,-0.0161755 -0.10356,-0.0618485 -0.0115156,-0.0456729 0.0161688,-0.0920375 0.0618418,-0.10356z"/>
  <path fill="#4D4948" d="M2.51938 3.61778l0.0150676 0.0602705c0.00627147,0.0250993 -0.00164508,0.0488892 -0.0175118,0.0528509l-0.303649 0.0758888c-0.01586,0.00396163 -0.0340365,-0.0133017 -0.0403146,-0.038401l-0.0155108 -0.0620835c-0.0204326,-0.000805756 -0.0389516,-0.0151549 -0.0442091,-0.0361986l-0.208194 -0.833051c-0.00636547,-0.0254686 0.00895732,-0.0514139 0.0340566,-0.0576854l0.479076 -0.119735c0.0250993,-0.00627147 0.050823,0.00942063 0.0571885,0.0348825l0.208201 0.833051c0.00635876,0.0254686 -0.00896403,0.0514139 -0.0340633,0.0576921l-0.130136 0.032519z"/>
  <path fill="#C2C1C1" d="M2.14738 2.96585c0.0182772,-0.00457266 0.0368029,0.00654677 0.0413688,0.0248106 0.00456595,0.0182839 -0.00654677,0.0368029 -0.024824,0.0413756 -0.0182705,0.00455923 -0.0367895,-0.00655348 -0.0413621,-0.0248307 -0.00456595,-0.0182705 0.00655348,-0.0367895 0.0248173,-0.0413554zm0.396257 0.47087c0.0267511,-0.00668777 0.0538782,0.00958849 0.0605593,0.0363329 0.00668777,0.0267578 -0.00958849,0.0538782 -0.0363396,0.060566 -0.0267511,0.00668106 -0.0538715,-0.00959521 -0.0605593,-0.0363463 -0.00668106,-0.0267511 0.00958849,-0.0538715 0.0363396,-0.0605525zm-0.258366 0.0808777c0.0182839,-0.00456595 0.0368029,0.00655348 0.0413756,0.024824 0.00456595,0.0182705 -0.00655348,0.0367962 -0.0248307,0.0413621 -0.0182638,0.00456595 -0.0367895,-0.00654677 -0.0413554,-0.024824 -0.00456595,-0.0182705 0.00654677,-0.0367962 0.0248106,-0.0413621zm-0.0344662 -0.137932c0.0182772,-0.00456595 0.0368029,0.00654677 0.0413621,0.0248173 0.00457266,0.0182772 -0.00654677,0.0368029 -0.024824,0.0413688 -0.0182638,0.00456595 -0.0367895,-0.00655348 -0.0413554,-0.0248307 -0.00456595,-0.0182638 0.00654677,-0.0367895 0.0248173,-0.0413554zm0.258359 -0.0808844c0.0267511,-0.00668777 0.0538782,0.00958849 0.0605593,0.0363329 0.00668777,0.0267578 -0.00958849,0.0538782 -0.0363463,0.060566 -0.0267444,0.00668106 -0.0538648,-0.00959521 -0.0605525,-0.0363463 -0.00668777,-0.0267511 0.00958849,-0.0538715 0.0363396,-0.0605525zm-0.0344729 -0.137945c0.0267511,-0.00668106 0.0538715,0.00959521 0.0605593,0.0363396 0.00668777,0.0267511 -0.00958849,0.0538782 -0.0363463,0.0605593 -0.0267444,0.00668777 -0.0538648,-0.00958849 -0.0605525,-0.0363396 -0.00668777,-0.0267511 0.00958849,-0.0538715 0.0363396,-0.0605593zm-0.258366 0.0808912c0.0182839,-0.00456595 0.0368029,0.00654677 0.0413688,0.0248173 0.00457266,0.0182772 -0.00654677,0.0368029 -0.024824,0.0413688 -0.0182638,0.00456595 -0.0367895,-0.00655348 -0.0413621,-0.0248307 -0.00455923,-0.0182638 0.00655348,-0.0367895 0.0248173,-0.0413554zm-0.0344729 -0.137939c0.0182839,-0.00456595 0.0368029,0.00654677 0.0413688,0.0248106 0.00457266,0.0182839 -0.00654677,0.0368029 -0.024824,0.0413756 -0.0182705,0.00456595 -0.0367895,-0.00655348 -0.0413621,-0.0248307 -0.00456595,-0.0182638 0.00655348,-0.0367895 0.0248173,-0.0413554zm0.258366 -0.0808912c0.0267511,-0.00668777 0.0538715,0.00958849 0.0605593,0.0363396 0.00668777,0.0267511 -0.00958849,0.0538782 -0.0363463,0.0605593 -0.0267444,0.00668777 -0.0538715,-0.00958849 -0.0605525,-0.0363463 -0.00668777,-0.0267444 0.00958849,-0.0538648 0.0363396,-0.0605525zm-0.0344796 -0.137939c0.0267578,-0.00668777 0.0538782,0.00958849 0.060566,0.0363396 0.00668106,0.0267511 -0.00958849,0.0538715 -0.0363463,0.0605593 -0.0267444,0.00668777 -0.0538715,-0.00958849 -0.0605525,-0.0363463 -0.00668777,-0.0267444 0.00958849,-0.0538648 0.0363329,-0.0605525zm-0.0344729 -0.137945c0.0267578,-0.00668777 0.0538782,0.00958849 0.0605593,0.0363396 0.00668777,0.0267511 -0.00958849,0.0538715 -0.0363396,0.0605593 -0.0267511,0.00668777 -0.0538715,-0.00958849 -0.0605593,-0.0363463 -0.00668106,-0.0267444 0.00959521,-0.0538715 0.0363396,-0.0605525zm-0.258359 0.0808912c0.0182772,-0.00457266 0.0368029,0.00654677 0.0413688,0.0248106 0.00456595,0.0182772 -0.00654677,0.0368029 -0.0248307,0.0413688 -0.0182638,0.00456595 -0.0367895,-0.00654677 -0.0413554,-0.024824 -0.00456595,-0.0182705 0.00655348,-0.0367962 0.0248173,-0.0413554z"/>
  <path fill="#4D4948" d="M4.31774 2.13906l0 0c0.0658437,-0.0164508 0.133178,0.0240115 0.149615,0.089788l0.159499 0.638192c0.0164374,0.0657765 -0.0239444,0.133165 -0.0897813,0.149615l0 0c-0.0658437,0.0164576 -0.133165,-0.0239444 -0.149615,-0.0897813l-0.159499 -0.638199c-0.0164576,-0.065837 0.0239444,-0.133158 0.0897813,-0.149615z"/>
  <path fill="#C2C1C1" d="M4.49545 2.86228c0.0182772,-0.00456595 0.0368029,0.00654677 0.0413688,0.0248173 0.00456595,0.0182772 -0.00654677,0.0367962 -0.0248307,0.0413688 -0.0182638,0.00456595 -0.0367895,-0.00655348 -0.0413554,-0.024824 -0.00456595,-0.0182772 0.00655348,-0.0367962 0.0248173,-0.0413621zm-0.0324787 -0.129962c0.0182772,-0.00456595 0.0368029,0.00654677 0.0413688,0.0248173 0.00456595,0.0182772 -0.00654677,0.0368029 -0.0248307,0.0413688 -0.0182638,0.00456595 -0.0367895,-0.00655348 -0.0413554,-0.0248307 -0.00456595,-0.0182638 0.00655348,-0.0367895 0.0248173,-0.0413554zm-0.0324787 -0.129962c0.0182772,-0.00456595 0.0368029,0.00655348 0.0413688,0.0248173 0.00456595,0.0182772 -0.00654677,0.0368029 -0.0248307,0.0413688 -0.0182638,0.00456595 -0.0367895,-0.00654677 -0.0413554,-0.0248307 -0.00456595,-0.0182638 0.00655348,-0.0367895 0.0248173,-0.0413554zm-0.0324787 -0.129955c0.0182772,-0.00457266 0.0368029,0.00654677 0.0413688,0.0248106 0.00456595,0.0182839 -0.00655348,0.0368029 -0.0248307,0.0413756 -0.0182638,0.00455923 -0.0367895,-0.00655348 -0.0413554,-0.0248307 -0.00456595,-0.0182705 0.00654677,-0.0367895 0.0248173,-0.0413554zm-0.0324787 -0.129962c0.0182772,-0.00456595 0.0368029,0.00654677 0.0413621,0.0248173 0.00457266,0.0182772 -0.00654677,0.0368029 -0.024824,0.0413688 -0.0182638,0.00456595 -0.0367895,-0.00655348 -0.0413554,-0.0248307 -0.00456595,-0.0182638 0.00654677,-0.0367895 0.0248173,-0.0413554zm-0.0324854 -0.129962c0.0182839,-0.00456595 0.0368029,0.00654677 0.0413688,0.0248173 0.00457266,0.0182772 -0.00654677,0.0368029 -0.024824,0.0413688 -0.0182638,0.00456595 -0.0367895,-0.00655348 -0.0413554,-0.0248307 -0.00456595,-0.0182638 0.00654677,-0.0367895 0.0248106,-0.0413554z"/>
  <path fill="#4D4948" d="M3.55808 2.3465l0 0c0.065837,-0.0164576 0.133178,0.0240115 0.149615,0.0897813l0.159493 0.638199c0.0164441,0.0657765 -0.0239444,0.133165 -0.0897813,0.149615l0 0c-0.065837,0.0164576 -0.133158,-0.0239444 -0.149615,-0.0897813l-0.159499 -0.638199c-0.0164508,-0.065837 0.0239444,-0.133158 0.089788,-0.149615z"/>
  <path fill="#C2C1C1" d="M3.73877 3.08167c0.0182839,-0.00456595 0.0368029,0.00654677 0.0413756,0.0248173 0.00456595,0.0182772 -0.00655348,0.0367962 -0.0248307,0.0413688 -0.0182638,0.00456595 -0.0367895,-0.00655348 -0.0413554,-0.024824 -0.00456595,-0.0182705 0.00654677,-0.0367962 0.0248106,-0.0413621zm-0.0324787 -0.129962c0.0182839,-0.00456595 0.0368029,0.00654677 0.0413688,0.0248173 0.00457266,0.0182772 -0.00654677,0.0368029 -0.024824,0.0413688 -0.0182705,0.00456595 -0.0367895,-0.00655348 -0.0413621,-0.0248307 -0.00455923,-0.0182638 0.00655348,-0.0367895 0.0248173,-0.0413554zm-0.0324787 -0.129955c0.0182839,-0.00457266 0.0368029,0.00654677 0.0413688,0.0248106 0.00456595,0.0182772 -0.00654677,0.0368029 -0.024824,0.0413688 -0.0182705,0.00456595 -0.0367895,-0.00654677 -0.0413621,-0.0248307 -0.00456595,-0.0182638 0.00655348,-0.0367895 0.0248173,-0.0413487zm-0.0324787 -0.129962c0.0182772,-0.00457266 0.0368029,0.00654677 0.0413688,0.0248106 0.00456595,0.0182839 -0.00654677,0.0368029 -0.024824,0.0413756 -0.0182705,0.00456595 -0.0367962,-0.00655348 -0.0413621,-0.0248307 -0.00456595,-0.0182705 0.00655348,-0.0367895 0.0248173,-0.0413554zm-0.0324787 -0.129962c0.0182772,-0.00456595 0.0368029,0.00654677 0.0413688,0.0248173 0.00456595,0.0182772 -0.00654677,0.0368029 -0.0248307,0.0413688 -0.0182638,0.00456595 -0.0367895,-0.00655348 -0.0413554,-0.0248307 -0.00456595,-0.0182638 0.00655348,-0.0367895 0.0248173,-0.0413554zm-0.0324787 -0.129962c0.0182772,-0.00456595 0.0368029,0.00655348 0.0413688,0.0248173 0.00456595,0.0182772 -0.00654677,0.0368029 -0.0248307,0.0413688 -0.0182638,0.00456595 -0.0367895,-0.00654677 -0.0413554,-0.0248307 -0.00456595,-0.0182638 0.00655348,-0.0367895 0.0248173,-0.0413554z"/>
  <path fill="#4D4948" d="M2.89323 2.54205l0 0c0.0676566,-0.0052777 0.12733,0.0458274 0.132594,0.113417l0.0511319 0.655838c0.00527099,0.0675895 -0.0457602,0.127323 -0.113417,0.132601l0 0c-0.0676633,0.00527099 -0.127323,-0.0457602 -0.132601,-0.113424l-0.0511252 -0.655831c-0.0052777,-0.0676633 0.0457535,-0.127323 0.113417,-0.132601z"/>
  <path fill="#C2C1C1" d="M2.89709 2.62928c0.0187808,-0.00146379 0.0351914,0.0125765 0.0366552,0.0313439 0.00146379,0.0187875 -0.0125698,0.0352048 -0.0313573,0.0366686 -0.0187674,0.00146379 -0.0351914,-0.0125832 -0.0366485,-0.0313573 -0.00146379,-0.0187741 0.0125765,-0.0351914 0.0313506,-0.0366552zm0.010401 0.133547c0.0187875,-0.00145707 0.0352048,0.0125832 0.0366686,0.0313573 0.00146379,0.0187741 -0.0125765,0.0351914 -0.0313573,0.0366619 -0.0187741,0.00145707 -0.0351914,-0.0125765 -0.0366552,-0.031364 -0.00146379,-0.0187674 0.0125832,-0.0351914 0.0313439,-0.0366552zm0.0104144 0.133554c0.0187875,-0.00146379 0.0352048,0.0125832 0.0366686,0.0313506 0.00146379,0.0187875 -0.0125832,0.0351981 -0.031364,0.0366686 -0.0187674,0.00145707 -0.0351847,-0.0125832 -0.0366552,-0.031364 -0.00145707,-0.0187741 0.0125832,-0.0351914 0.0313506,-0.0366552zm0.0104144 0.133547c0.0187808,-0.00145707 0.0352048,0.0125832 0.0366686,0.0313573 0.00146379,0.0187808 -0.0125832,0.0351981 -0.0313708,0.0366619 -0.0187674,0.00146379 -0.0351847,-0.0125765 -0.0366485,-0.031364 -0.00146379,-0.0187674 0.0125765,-0.0351847 0.0313506,-0.0366552zm0.0104144 0.133561c0.0187808,-0.0014705 0.0351981,0.0125765 0.0366619,0.0313439 0.00146379,0.0187875 -0.0125765,0.0352048 -0.031364,0.0366686 -0.0187674,0.00146379 -0.0351847,-0.0125832 -0.0366485,-0.031364 -0.0014705,-0.0187741 0.0125765,-0.0351914 0.0313506,-0.0366485zm0.0104077 0.133547c0.0187875,-0.00146379 0.0352048,0.0125765 0.0366686,0.0313573 0.00146379,0.0187741 -0.0125765,0.0351914 -0.031364,0.0366552 -0.0187741,0.00146379 -0.0351914,-0.0125765 -0.0366485,-0.0313573 -0.0014705,-0.0187741 0.0125765,-0.0351914 0.0313439,-0.0366552z"/>
  <g id="_146653792">
   <path id="_146653936" fill="#838281" d="M1.88971 5.06191c0.12978,-0.15075 0.229191,-0.321792 0.319482,-0.506606 0.130566,-0.267249 -0.277872,-0.464773 -0.406296,-0.19649 -0.0888144,0.185525 -0.161171,0.369647 -0.19876,0.564989 -0.0525151,0.272856 0.104292,0.348691 0.285573,0.138107z"/>
   <path id="_146652976" fill="#C2C1C1" d="M1.91564 4.92212c0.0986715,-0.114686 0.179939,-0.24123 0.252907,-0.376604l-0.332737 -0.160916c-0.0608211,0.141242 -0.109576,0.283404 -0.138187,0.432087 -0.0525218,0.272856 0.0368566,0.315997 0.218017,0.105433z"/>
   <ellipse id="_146652232" fill="#383431" transform="matrix(0.900248 0.435376 -0.435376 0.900248 1.95556 4.56144)" rx="0.058753" ry="0.0293765"/>
   <path id="_146653120" fill="none" d="M1.85418 4.41451c-0.0381391,0.0968586 -0.0352854,0.198303 0.0455991,0.237423 0.0658168,0.0318341 0.156202,-0.0245353 0.234898,-0.101767"/>
   <path id="_146653720" fill="#72706F" fill-rule="nonzero" d="M1.86518 4.41886c-0.0281813,0.0716317 -0.0449142,0.18147 0.0397506,0.222415l5.37171e-005 8.05756e-005c0.0759089,0.0366619 0.175138,-0.0541669 0.221422,-0.0996048 0.0126101,-0.00622446 0.0181228,-0.000617746 0.0165314,0.0168403 -0.055295,0.0542811 -0.160977,0.146117 -0.248226,0.104003l-2.01439e-005 4.02878e-005 -7.38609e-005 -3.35732e-005c-0.0974159,-0.0471099 -0.0844768,-0.168329 -0.0516422,-0.251933l0.000194724 -0.000496883c0.0159674,-0.0189688 0.0248173,-0.0100048 0.0220106,0.00868873z"/>
  </g>
  <path fill="#4D4948" d="M2.60408 4.64566c0.0944749,-0.0236086 0.190246,0.0338619 0.213861,0.128337 0.0236086,0.0944816 -0.0338619,0.190252 -0.128337,0.213861 -0.0944816,0.0236086 -0.190252,-0.0338619 -0.213861,-0.128337 -0.0236086,-0.0944749 0.0338619,-0.190246 0.128337,-0.213861z"/>
  <path fill="#C2C1C1" d="M2.62118 4.7141c0.0566916,-0.0141679 0.114149,0.0203118 0.128317,0.0770034 0.0141679,0.0566849 -0.0203118,0.114149 -0.0770034,0.12831 -0.0566849,0.0141679 -0.114149,-0.0203118 -0.12831,-0.0769967 -0.0141679,-0.0566916 0.0203118,-0.114149 0.0769967,-0.128317z"/>
  <path fill="#4D4948" d="M2.86932 4.15521c0.0944749,-0.0236086 0.190246,0.0338619 0.213854,0.128343 0.0236154,0.0944749 -0.0338552,0.190246 -0.128337,0.213854 -0.0944749,0.0236086 -0.190246,-0.0338619 -0.213854,-0.128337 -0.0236154,-0.0944749 0.0338619,-0.190246 0.128337,-0.213861z"/>
  <path fill="#C2C1C1" d="M2.88642 4.22365c0.0566849,-0.0141679 0.114149,0.0203118 0.128317,0.0770034 0.0141679,0.0566849 -0.0203185,0.114149 -0.0770034,0.128317 -0.0566849,0.0141612 -0.114149,-0.0203185 -0.128317,-0.0770034 -0.0141679,-0.0566916 0.0203185,-0.114149 0.0770034,-0.128317z"/>
  <path fill="#4D4948" d="M2.98057 3.58205c0.0944749,-0.0236086 0.190246,0.0338619 0.213854,0.128337 0.0236154,0.0944749 -0.0338552,0.190246 -0.128337,0.213861 -0.0944749,0.0236086 -0.190246,-0.0338619 -0.213854,-0.128337 -0.0236154,-0.0944816 0.0338619,-0.190246 0.128337,-0.213861z"/>
  <path fill="#C2C1C1" d="M2.99767 3.6505c0.0566916,-0.0141679 0.114149,0.0203118 0.128317,0.0769967 0.0141679,0.0566916 -0.0203185,0.114149 -0.0770034,0.128317 -0.0566849,0.0141679 -0.114149,-0.0203118 -0.128317,-0.0770034 -0.0141679,-0.0566849 0.0203185,-0.114142 0.0770034,-0.12831z"/>
  <path fill="#AAA9A9" fill-rule="nonzero" d="M2.39338 3.63594c0.0559799,0.0303636 0.116821,0.0587799 0.170585,0.0926216 0.116579,0.0976845 0.568232,0.299667 0.673256,0.341661 0.215318,0.0861017 0.425291,0.150159 0.632888,0.204414 0.0482849,-0.00968921 0.12831,-0.00106091 0.214257,0.0261736 0.0527971,0.0167194 0.132258,0.0482446 0.168443,0.0703828 0.052871,0.0323914 0.050353,0.0564499 0.0422753,0.0819386 -0.00807099,0.0254619 -0.0199089,0.04666 -0.0817775,0.0426111 -0.0423358,-0.00277986 -0.125436,-0.022776 -0.178206,-0.0395425 -0.0841343,-0.0266504 -0.153355,-0.0646485 -0.188023,-0.099766 -0.210148,-0.0549794 -0.422861,-0.119923 -0.641294,-0.207274 -0.222254,-0.0888614 -0.450189,-0.200761 -0.686947,-0.34861 -0.0552883,-0.0299943 -0.11057,-0.0599818 -0.165851,-0.0899693 -0.0305583,-0.0138791 0.00989065,-0.0877535 0.0403952,-0.0746398z"/>
 </g>
</svg>
